<?xml version="1.0" encoding="utf-8"?>
<svg id="master-artboard" viewBox="0 0 1400 980" version="1.1" xmlns="http://www.w3.org/2000/svg" x="0px" y="0px" style="enable-background:new 0 0 1400 980;" width="1400px" height="980px" xmlns:xlink="http://www.w3.org/1999/xlink"><defs><path id="text-path-0" d="M 1459.4779052734375 292.0559997558594 A 100 -31 0 0 0 1514.0557861328125 292.0559997558594 A 100 -31 0 0 0 1459.4779052734375 292.0559997558594 Z" style="fill: none; stroke: red; stroke-width: 2;"/><path id="path-1" d="M 1459.4779052734375 292.0559997558594 A 100 -31 0 0 0 1514.0557861328125 292.0559997558594 A 100 -31 0 0 0 1459.4779052734375 292.0559997558594 Z" style="fill: none; stroke: red; stroke-width: 2;"/><style id="ee-google-fonts">@import url(https://fonts.googleapis.com/css?family=Arvo:700,400,400italic,700italic);</style></defs><g transform="matrix(7.061864852905274, 0, 0, 7.061864852905274, -2353.713436070298, -3702.193907917185)"><g transform="matrix(1, 0, 0, 1, 0, 0)"><g transform="matrix(1, 0, 0, 1, 1.1368683772161603e-13, 0)">
		<g>
			<path class="st20" d="M431.7,634.6l-45.4-2.4l-8,6.3c0,0,41.9,8,53.4,8c0,0,0,0,0,0L431.7,634.6L431.7,634.6z" style="fill: rgb(255, 196, 32);"/>
			<path class="st22" d="M477.1,632.2l-45.4,2.4v11.9c11.5,0,53.4-8,53.4-8L477.1,632.2z" style="fill: rgb(252, 160, 13);"/>
		</g>
		<path class="st21" d="M422.8,549.7c0,4.2,2.9,7.7,6.8,8.7c-1.6,12.7-3.9,30.8-6.2,36.5c-2.9,7.1-6.4,13.6-10.1,16.1&#10;&#9;&#9;&#9;c-4.4-14.4-19-37-32.5-50c0.7-1.3,1.2-2.8,1.2-4.4c0-5-4-9-9-9c-5,0-9,4-9,9c0,5,4,9,9,9c1.7,0,3.2-0.5,4.5-1.3&#10;&#9;&#9;&#9;c10.2,17,15.8,43.8,13.3,61.3c0.1,0,0.2,0,0.5,0l0,0h40.5v-85C426.8,540.8,422.8,544.8,422.8,549.7z" style="fill: rgb(254, 241, 66);"/>
		<path class="st20" d="M472.1,625.7c0.2,0,0.4,0,0.5,0c-2.5-17.7,2.9-45.1,13.3-62c1.3,0.8,2.8,1.2,4.5,1.2c5,0,9-4,9-9&#10;&#9;&#9;&#9;c0-5-4-9-9-9c-4.9,0-9,4-9,9c0,2,0.7,3.8,1.7,5.3c-13.1,13-27.8,35.4-31.9,49.6c-4.1-3.4-8.5-8.6-11.2-16.9&#10;&#9;&#9;&#9;c-1.7-5.2-4.2-22.9-6.1-35.5c3.9-1,6.8-4.5,6.8-8.7c0-5-4-9-9-9c0,0,0,0,0,0v85L472.1,625.7L472.1,625.7z" style="fill: rgb(255, 196, 32);"/>
		<path class="st21" d="M391.3,628c0,5,5,9.2,11.1,9.2h29.3V628C413.9,628,396.1,628,391.3,628z" style="fill: rgb(254, 241, 66);"/>
		<path class="st20" d="M472,628c-4.3,0-22.3,0-40.3,0v9.2h29.1C467,637.2,472,633.1,472,628z" style="fill: rgb(255, 196, 32);"/>
	</g></g></g><text class="single-line-text" style="font-size: 101.11px; font-family: null; fill: rgb(59, 59, 59); white-space: pre; color: rgb(51, 51, 51); font-weight: 900; fill-opacity: 1; letter-spacing: -0.220744px; text-anchor: middle;" transform="matrix(3.7675871849060063, 0, 0, 3.7675871849060063, -5003.529712507769, -439.3325006269969)"><textPath startOffset="25%" xlink:href="#text-path-0">E</textPath></text><text class="single-line-text" style="font-size: 101.11px; font-family: null; fill: rgb(59, 59, 59); white-space: pre; color: rgb(51, 51, 51); font-weight: 900; fill-opacity: 1; letter-spacing: -0.220744px; text-anchor: middle;" transform="matrix(3.7675871849060063, 0, 0, 3.7675871849060063, -4820.343309592138, -292.33917158905956)"><textPath startOffset="25%" xlink:href="#path-1">L</textPath></text></svg>